TITLE ""
FILE "DISC1Track26.mp3" MP3
  TRACK 01 AUDIO
    TITLE "DISC1Track26_01"
    INDEX 01 00:00:00
  TRACK 02 AUDIO
    TITLE "DISC1Track26_02"
    INDEX 01 00:02:01
  TRACK 03 AUDIO
    TITLE "DISC1Track26_03"
    INDEX 01 00:02:21
  TRACK 04 AUDIO
    TITLE "DISC1Track26_04"
    INDEX 01 00:05:02
  TRACK 05 AUDIO
    TITLE "DISC1Track26_05"
    INDEX 01 00:07:57
  TRACK 06 AUDIO
    TITLE "DISC1Track26_06"
    INDEX 01 00:10:32
  TRACK 07 AUDIO
    TITLE "DISC1Track26_07"
    INDEX 01 00:10:54
  TRACK 08 AUDIO
    TITLE "DISC1Track26_08"
    INDEX 01 00:13:09
  TRACK 09 AUDIO
    TITLE "DISC1Track26_09"
    INDEX 01 00:15:14
  TRACK 10 AUDIO
    TITLE "DISC1Track26_10"
    INDEX 01 00:17:13
  TRACK 11 AUDIO
    TITLE "DISC1Track26_11"
    INDEX 01 00:17:44
  TRACK 12 AUDIO
    TITLE "DISC1Track26_12"
    INDEX 01 00:20:46
  TRACK 13 AUDIO
    TITLE "DISC1Track26_13"
    INDEX 01 00:22:35
  TRACK 14 AUDIO
    TITLE "DISC1Track26_14"
    INDEX 01 00:24:17
  TRACK 15 AUDIO
    TITLE "DISC1Track26_15"
    INDEX 01 00:24:42
  TRACK 16 AUDIO
    TITLE "DISC1Track26_16"
    INDEX 01 00:27:66
  TRACK 17 AUDIO
    TITLE "DISC1Track26_17"
    INDEX 01 00:30:19
  TRACK 18 AUDIO
    TITLE "DISC1Track26_18"
    INDEX 01 00:32:44
  TRACK 19 AUDIO
    TITLE "DISC1Track26_19"
    INDEX 01 00:32:69
  TRACK 20 AUDIO
    TITLE "DISC1Track26_20"
    INDEX 01 00:37:43
  TRACK 21 AUDIO
    TITLE "DISC1Track26_21"
    INDEX 01 00:42:36
  TRACK 22 AUDIO
    TITLE "DISC1Track26_22"
    INDEX 01 00:47:18
  TRACK 23 AUDIO
    TITLE "DISC1Track26_23"
    INDEX 01 00:47:39
  TRACK 24 AUDIO
    TITLE "DISC1Track26_24"
    INDEX 01 00:49:71
  TRACK 25 AUDIO
    TITLE "DISC1Track26_25"
    INDEX 01 00:53:05
  TRACK 26 AUDIO
    TITLE "DISC1Track26_26"
    INDEX 01 00:56:05
  TRACK 27 AUDIO
    TITLE "DISC1Track26_27"
    INDEX 01 00:56:26
  TRACK 28 AUDIO
    TITLE "DISC1Track26_28"
    INDEX 01 00:59:13
  TRACK 29 AUDIO
    TITLE "DISC1Track26_29"
    INDEX 01 01:01:33
  TRACK 30 AUDIO
    TITLE "DISC1Track26_30"
    INDEX 01 01:03:52
  TRACK 31 AUDIO
    TITLE "DISC1Track26_31"
    INDEX 01 01:04:01
  TRACK 32 AUDIO
    TITLE "DISC1Track26_32"
    INDEX 01 01:06:43
  TRACK 33 AUDIO
    TITLE "DISC1Track26_33"
    INDEX 01 01:09:06
  TRACK 34 AUDIO
    TITLE "DISC1Track26_34"
    INDEX 01 01:11:38
  TRACK 35 AUDIO
    TITLE "DISC1Track26_35"
    INDEX 01 01:11:61
  TRACK 36 AUDIO
    TITLE "DISC1Track26_36"
    INDEX 01 01:14:67
  TRACK 37 AUDIO
    TITLE "DISC1Track26_37"
    INDEX 01 01:17:36
  TRACK 38 AUDIO
    TITLE "DISC1Track26_38"
    INDEX 01 01:20:00
  TRACK 39 AUDIO
    TITLE "DISC1Track26_39"
    INDEX 01 01:20:21
  TRACK 40 AUDIO
    TITLE "DISC1Track26_40"
    INDEX 01 01:23:57
  TRACK 41 AUDIO
    TITLE "DISC1Track26_41"
    INDEX 01 01:26:53
  TRACK 42 AUDIO
    TITLE "DISC1Track26_42"
    INDEX 01 01:29:38
